# Blender v2.79 (sub 0) OBJ File: ''
# www.blender.org
mtllib box_cyl.mtl
o Cube
v 1.000000 -1.000000 0.000000
v -1.000000 -1.000000 0.000000
v -1.000000 1.000000 0.000000
v 1.000000 1.000000 0.000000
v 0.999999 -1.000000 0.650044
v -1.000001 -0.999999 0.650044
v -1.000000 1.000000 0.650044
v 1.000000 1.000000 0.650044
v 2.013456 0.000000 0.000000
v 2.013456 0.000000 0.651208
v 1.994241 -0.195090 0.000000
v 1.994241 -0.195090 0.651208
v 1.937335 -0.382683 0.000000
v 1.937335 -0.382683 0.651208
v 1.844925 -0.555570 0.000000
v 1.844925 -0.555570 0.651208
v 1.720562 -0.707107 0.000000
v 1.720562 -0.707107 0.651208
v 1.569026 -0.831470 0.000000
v 1.569026 -0.831470 0.651208
v 1.396139 -0.923880 0.000000
v 1.396139 -0.923880 0.651208
v 1.208546 -0.980785 0.000000
v 1.208546 -0.980785 0.651208
v 1.013456 -1.000000 0.000000
v 1.013456 -1.000000 0.651208
v 0.818366 -0.980785 0.000000
v 0.818366 -0.980785 0.651208
v 0.630772 -0.923880 0.000000
v 0.630772 -0.923880 0.651208
v 0.457886 -0.831470 0.000000
v 0.457886 -0.831470 0.651208
v 0.306349 -0.707107 0.000000
v 0.306349 -0.707107 0.651208
v 0.181986 -0.555570 0.000000
v 0.181986 -0.555570 0.651208
v 0.089576 -0.382683 0.000000
v 0.089576 -0.382683 0.651208
v 0.032670 -0.195090 0.000000
v 0.032670 -0.195090 0.651208
v 0.013456 0.000000 0.000000
v 0.013456 0.000000 0.651208
v 0.032671 0.195091 0.000000
v 0.032671 0.195091 0.651208
v 0.089576 0.382684 0.000000
v 0.089576 0.382684 0.651208
v 0.181986 0.555571 0.000000
v 0.181986 0.555571 0.651208
v 0.306349 0.707107 0.000000
v 0.306349 0.707107 0.651208
v 0.457886 0.831470 0.000000
v 0.457886 0.831470 0.651208
v 0.630773 0.923880 0.000000
v 0.630773 0.923880 0.651208
v 0.818366 0.980785 0.000000
v 0.818366 0.980785 0.651208
v 1.013457 1.000000 0.000000
v 1.013457 1.000000 0.651208
v 1.208547 0.980785 0.000000
v 1.208547 0.980785 0.651208
v 1.396140 0.923879 0.000000
v 1.396140 0.923879 0.651208
v 1.569027 0.831469 0.000000
v 1.569027 0.831469 0.651208
v 1.720563 0.707106 0.000000
v 1.720563 0.707106 0.651208
v 1.844926 0.555569 0.000000
v 1.844926 0.555569 0.651208
v 1.937336 0.382682 0.000000
v 1.937336 0.382682 0.651208
v 1.994241 0.195089 0.000000
v 1.994241 0.195089 0.651208
vn 0.0000 0.0000 -1.0000
vn 0.0000 0.0000 1.0000
vn -0.0000 -1.0000 0.0000
vn -1.0000 0.0000 -0.0000
vn 0.0000 1.0000 -0.0000
vn 1.0000 -0.0000 0.0000
vn 0.9952 -0.0980 0.0000
vn 0.9569 -0.2903 0.0000
vn 0.8819 -0.4714 0.0000
vn 0.7730 -0.6344 0.0000
vn 0.6344 -0.7730 0.0000
vn 0.4714 -0.8819 0.0000
vn 0.2903 -0.9569 0.0000
vn 0.0980 -0.9952 0.0000
vn -0.0980 -0.9952 0.0000
vn -0.2903 -0.9569 0.0000
vn -0.4714 -0.8819 0.0000
vn -0.6344 -0.7730 0.0000
vn -0.7730 -0.6344 0.0000
vn -0.8819 -0.4714 0.0000
vn -0.9569 -0.2903 0.0000
vn -0.9952 -0.0980 0.0000
vn -0.9952 0.0980 0.0000
vn -0.9569 0.2903 0.0000
vn -0.8819 0.4714 0.0000
vn -0.7730 0.6344 0.0000
vn -0.6344 0.7730 0.0000
vn -0.4714 0.8819 0.0000
vn -0.2903 0.9569 0.0000
vn -0.0980 0.9952 0.0000
vn 0.0980 0.9952 0.0000
vn 0.2903 0.9569 0.0000
vn 0.4714 0.8819 0.0000
vn 0.6344 0.7730 0.0000
vn 0.7730 0.6344 0.0000
vn 0.8819 0.4714 0.0000
vn 0.9569 0.2903 0.0000
vn 0.9952 0.0980 0.0000
usemtl Material
s off
f 1//1 2//1 3//1 4//1
f 5//2 8//2 7//2 6//2
f 1//3 5//3 6//3 2//3
f 2//4 6//4 7//4 3//4
f 3//5 7//5 8//5 4//5
f 5//6 1//6 4//6 8//6
f 9//7 10//7 12//7 11//7
f 11//8 12//8 14//8 13//8
f 13//9 14//9 16//9 15//9
f 15//10 16//10 18//10 17//10
f 17//11 18//11 20//11 19//11
f 19//12 20//12 22//12 21//12
f 21//13 22//13 24//13 23//13
f 23//14 24//14 26//14 25//14
f 25//15 26//15 28//15 27//15
f 27//16 28//16 30//16 29//16
f 29//17 30//17 32//17 31//17
f 31//18 32//18 34//18 33//18
f 33//19 34//19 36//19 35//19
f 35//20 36//20 38//20 37//20
f 37//21 38//21 40//21 39//21
f 39//22 40//22 42//22 41//22
f 41//23 42//23 44//23 43//23
f 43//24 44//24 46//24 45//24
f 45//25 46//25 48//25 47//25
f 47//26 48//26 50//26 49//26
f 49//27 50//27 52//27 51//27
f 51//28 52//28 54//28 53//28
f 53//29 54//29 56//29 55//29
f 55//30 56//30 58//30 57//30
f 57//31 58//31 60//31 59//31
f 59//32 60//32 62//32 61//32
f 61//33 62//33 64//33 63//33
f 63//34 64//34 66//34 65//34
f 65//35 66//35 68//35 67//35
f 67//36 68//36 70//36 69//36
f 12//2 10//2 72//2 70//2 68//2 66//2 64//2 62//2 60//2 58//2 56//2 54//2 52//2 50//2 48//2 46//2 44//2 42//2 40//2 38//2 36//2 34//2 32//2 30//2 28//2 26//2 24//2 22//2 20//2 18//2 16//2 14//2
f 69//37 70//37 72//37 71//37
f 71//38 72//38 10//38 9//38
f 9//1 11//1 13//1 15//1 17//1 19//1 21//1 23//1 25//1 27//1 29//1 31//1 33//1 35//1 37//1 39//1 41//1 43//1 45//1 47//1 49//1 51//1 53//1 55//1 57//1 59//1 61//1 63//1 65//1 67//1 69//1 71//1
