# Blender v2.79 (sub 0) OBJ File: ''
# www.blender.org
mtllib cylinder.mtl
o Cylinder
v 0.000000 -0.065000 -0.130000
v 0.000000 0.065000 -0.130000
v 0.025362 -0.065000 -0.127502
v 0.025362 0.065000 -0.127502
v 0.049749 -0.065000 -0.120104
v 0.049749 0.065000 -0.120104
v 0.072224 -0.065000 -0.108091
v 0.072224 0.065000 -0.108091
v 0.091924 -0.065000 -0.091924
v 0.091924 0.065000 -0.091924
v 0.108091 -0.065000 -0.072224
v 0.108091 0.065000 -0.072224
v 0.120104 -0.065000 -0.049749
v 0.120104 0.065000 -0.049749
v 0.127502 -0.065000 -0.025362
v 0.127502 0.065000 -0.025362
v 0.130000 -0.065000 -0.000000
v 0.130000 0.065000 -0.000000
v 0.127502 -0.065000 0.025362
v 0.127502 0.065000 0.025362
v 0.120104 -0.065000 0.049749
v 0.120104 0.065000 0.049749
v 0.108091 -0.065000 0.072224
v 0.108091 0.065000 0.072224
v 0.091924 -0.065000 0.091924
v 0.091924 0.065000 0.091924
v 0.072224 -0.065000 0.108091
v 0.072224 0.065000 0.108091
v 0.049749 -0.065000 0.120104
v 0.049749 0.065000 0.120104
v 0.025362 -0.065000 0.127502
v 0.025362 0.065000 0.127502
v -0.000000 -0.065000 0.130000
v -0.000000 0.065000 0.130000
v -0.025362 -0.065000 0.127502
v -0.025362 0.065000 0.127502
v -0.049749 -0.065000 0.120104
v -0.049749 0.065000 0.120104
v -0.072224 -0.065000 0.108091
v -0.072224 0.065000 0.108091
v -0.091924 -0.065000 0.091924
v -0.091924 0.065000 0.091924
v -0.108091 -0.065000 0.072224
v -0.108091 0.065000 0.072224
v -0.120104 -0.065000 0.049749
v -0.120104 0.065000 0.049749
v -0.127502 -0.065000 0.025362
v -0.127502 0.065000 0.025362
v -0.130000 -0.065000 -0.000000
v -0.130000 0.065000 -0.000000
v -0.127502 -0.065000 -0.025362
v -0.127502 0.065000 -0.025362
v -0.120104 -0.065000 -0.049749
v -0.120104 0.065000 -0.049749
v -0.108091 -0.065000 -0.072224
v -0.108091 0.065000 -0.072224
v -0.091924 -0.065000 -0.091924
v -0.091924 0.065000 -0.091924
v -0.072224 -0.065000 -0.108091
v -0.072224 0.065000 -0.108091
v -0.049749 -0.065000 -0.120104
v -0.049749 0.065000 -0.120104
v -0.025362 -0.065000 -0.127502
v -0.025362 0.065000 -0.127502
vn 0.0980 0.0000 -0.9952
vn 0.2903 0.0000 -0.9569
vn 0.4714 0.0000 -0.8819
vn 0.6344 0.0000 -0.7730
vn 0.7730 0.0000 -0.6344
vn 0.8819 0.0000 -0.4714
vn 0.9569 0.0000 -0.2903
vn 0.9952 0.0000 -0.0980
vn 0.9952 0.0000 0.0980
vn 0.9569 0.0000 0.2903
vn 0.8819 0.0000 0.4714
vn 0.7730 0.0000 0.6344
vn 0.6344 0.0000 0.7730
vn 0.4714 0.0000 0.8819
vn 0.2903 0.0000 0.9569
vn 0.0980 0.0000 0.9952
vn -0.0980 0.0000 0.9952
vn -0.2903 0.0000 0.9569
vn -0.4714 0.0000 0.8819
vn -0.6344 0.0000 0.7730
vn -0.7730 0.0000 0.6344
vn -0.8819 0.0000 0.4714
vn -0.9569 0.0000 0.2903
vn -0.9952 0.0000 0.0980
vn -0.9952 0.0000 -0.0980
vn -0.9569 0.0000 -0.2903
vn -0.8819 0.0000 -0.4714
vn -0.7730 0.0000 -0.6344
vn -0.6344 0.0000 -0.7730
vn -0.4714 0.0000 -0.8819
vn 0.0000 1.0000 0.0000
vn -0.2903 0.0000 -0.9569
vn -0.0980 0.0000 -0.9952
vn 0.0000 -1.0000 -0.0000
usemtl Material.002
s off
f 1//1 2//1 4//1 3//1
f 3//2 4//2 6//2 5//2
f 5//3 6//3 8//3 7//3
f 7//4 8//4 10//4 9//4
f 9//5 10//5 12//5 11//5
f 11//6 12//6 14//6 13//6
f 13//7 14//7 16//7 15//7
f 15//8 16//8 18//8 17//8
f 17//9 18//9 20//9 19//9
f 19//10 20//10 22//10 21//10
f 21//11 22//11 24//11 23//11
f 23//12 24//12 26//12 25//12
f 25//13 26//13 28//13 27//13
f 27//14 28//14 30//14 29//14
f 29//15 30//15 32//15 31//15
f 31//16 32//16 34//16 33//16
f 33//17 34//17 36//17 35//17
f 35//18 36//18 38//18 37//18
f 37//19 38//19 40//19 39//19
f 39//20 40//20 42//20 41//20
f 41//21 42//21 44//21 43//21
f 43//22 44//22 46//22 45//22
f 45//23 46//23 48//23 47//23
f 47//24 48//24 50//24 49//24
f 49//25 50//25 52//25 51//25
f 51//26 52//26 54//26 53//26
f 53//27 54//27 56//27 55//27
f 55//28 56//28 58//28 57//28
f 57//29 58//29 60//29 59//29
f 59//30 60//30 62//30 61//30
f 4//31 2//31 64//31 62//31 60//31 58//31 56//31 54//31 52//31 50//31 48//31 46//31 44//31 42//31 40//31 38//31 36//31 34//31 32//31 30//31 28//31 26//31 24//31 22//31 20//31 18//31 16//31 14//31 12//31 10//31 8//31 6//31
f 61//32 62//32 64//32 63//32
f 63//33 64//33 2//33 1//33
f 1//34 3//34 5//34 7//34 9//34 11//34 13//34 15//34 17//34 19//34 21//34 23//34 25//34 27//34 29//34 31//34 33//34 35//34 37//34 39//34 41//34 43//34 45//34 47//34 49//34 51//34 53//34 55//34 57//34 59//34 61//34 63//34
o Circle
v 3.387830 -3.642715 -0.172280
v 3.192740 -3.642715 -0.153066
v 3.005147 -3.642715 -0.096160
v 2.832260 -3.642715 -0.003750
v 2.680723 -3.642715 0.120613
v 2.556361 -3.642715 0.272150
v 2.463951 -3.642715 0.445036
v 2.407045 -3.642715 0.632629
v 2.387830 -3.642715 0.827720
v 2.407045 -3.642715 1.022810
v 2.463951 -3.642715 1.210403
v 2.556361 -3.642715 1.383290
v 2.680723 -3.642715 1.534827
v 2.832260 -3.642715 1.659189
v 3.005147 -3.642715 1.751599
v 3.192740 -3.642715 1.808505
v 3.387830 -3.642715 1.827720
v 3.582921 -3.642715 1.808505
v 3.770514 -3.642715 1.751599
v 3.943401 -3.642715 1.659189
v 4.094937 -3.642715 1.534826
v 4.219300 -3.642715 1.383289
v 4.311710 -3.642715 1.210402
v 4.368616 -3.642715 1.022809
v 4.387830 -3.642715 0.827719
v 4.368615 -3.642715 0.632628
v 4.311709 -3.642715 0.445035
v 4.219299 -3.642715 0.272148
v 4.094936 -3.642715 0.120612
v 3.943399 -3.642715 -0.003751
v 3.770512 -3.642715 -0.096160
v 3.582919 -3.642715 -0.153066
l 66 65
l 67 66
l 68 67
l 69 68
l 70 69
l 71 70
l 72 71
l 73 72
l 74 73
l 75 74
l 76 75
l 77 76
l 78 77
l 79 78
l 80 79
l 81 80
l 82 81
l 83 82
l 84 83
l 85 84
l 86 85
l 87 86
l 88 87
l 89 88
l 90 89
l 91 90
l 92 91
l 93 92
l 94 93
l 95 94
l 96 95
l 65 96
