# Blender v2.79 (sub 0) OBJ File: ''
# www.blender.org
mtllib triangle.mtl
o Cylinder_Cylinder.002
v 0.107466 0.970253 -0.787037
v 0.107466 1.512143 -0.787037
v 0.973491 0.970253 0.712963
v 0.973491 1.512143 0.712963
v -0.758560 0.970253 0.712963
v -0.758560 1.512143 0.712963
vn 0.8660 0.0000 -0.5000
vn -0.0000 0.0000 1.0000
vn 0.0000 1.0000 -0.0000
vn -0.8660 0.0000 -0.5000
vn 0.0000 -1.0000 0.0000
usemtl None
s off
f 1//1 2//1 4//1 3//1
f 3//2 4//2 6//2 5//2
f 4//3 2//3 6//3
f 5//4 6//4 2//4 1//4
f 1//5 3//5 5//5
